<svg xmlns="http://www.w3.org/2000/svg" viewBox="120 140 260 320"><g id="freepik--Cat--inject-4"><path d="M64.12,294.42c.78-6.86,4-26.12,5.2-27.78s15.06,4.87,21,17.82Z" style="fill:#FFC727"></path><path d="M65.64,293.84c.58-5.61,3-21.21,3.86-22.57s11.39,4.51,15.83,15.1Z" style="opacity:0.1"></path><path d="M71.51,291.55s.43-2.77-.09-3.53a9.54,9.54,0,0,0-1.33-1.46,8.67,8.67,0,0,1,2.32,1,9.87,9.87,0,0,1,1.13,1.25,4.32,4.32,0,0,0-1.22-3,18.47,18.47,0,0,0-3.23-2s4.25,0,5.76.94,3.32,1.6,4.18,2.05a14.79,14.79,0,0,0,3.27.76Z" style="fill:#FFC727"></path><path d="M128,375.83c-2.32,1.69-10.5,16.69-8.84,22S130.9,421.88,131.65,423s6.2,16,5.95,16.69-6.89,3.4-6.89,4.5,16.6.89,16.85.41a20.32,20.32,0,0,0,.33-3.72c0-.25,8.63-20.7,10.13-24.44s-2.49-21.58-2.49-23.24S153.58,357.24,128,375.83Z" style="fill:#FFC727"></path><g style="opacity:0.1"><path d="M128,375.83c-2.32,1.69-10.5,16.69-8.84,22S130.9,421.88,131.65,423s6.2,16,5.95,16.69-6.89,3.4-6.89,4.5,16.6.89,16.85.41a20.32,20.32,0,0,0,.33-3.72c0-.25,8.63-20.7,10.13-24.44s-2.49-21.58-2.49-23.24S153.58,357.24,128,375.83Z"></path></g><path d="M99.82,375.83c-2.32,1.69-7,16.69-5.32,22s15.92,23.83,16.67,25,7.35,17,7.1,17.68-5.54,2.95-5.54,4,17,.58,17.25.1a48.22,48.22,0,0,0,.69-5.46c0-.25,9.22-15.72,10.72-19.46s5.66-18.65,5.66-20.31S125.39,357.24,99.82,375.83Z" style="fill:#FFC727"></path><path d="M226.64,341.42c4.7,4.51,12.65,22.85,13.14,28.91s-3.07,35.11-2.65,36.36A187.79,187.79,0,0,0,246.37,423c.5.78,2.64,3.73,2.71,4.07.25,1.16-1.33,4.73-1.91,5.48s-11.51,10.15-12.17,9.49,1.79-7.11,1.79-7.53-18.56-10.7-19.84-11.76c-2.4-2-19.92-21.67-21.58-32.22S212.09,327.46,226.64,341.42Z" style="fill:#FFC727"></path><path d="M223.83,339.55,211.61,417c-6.08-7.12-15.08-19-16.24-26.46C193.81,380.7,209.83,334,223.83,339.55Z" style="opacity:0.1"></path><path d="M111.52,281.33c2.74-4.81,17.1-20.89,20.09-21.15s9.63,21.15,10.71,25.72,0,20.36,0,20.36Z" style="fill:#FFC727"></path><path d="M112.36,282c2.16-3.81,12.78-16.81,15.15-17s7.62,16.74,8.47,20.35.1,15.86.1,15.86Z" style="opacity:0.1"></path><path d="M117.53,286.2s2.81-2.1,3.12-3.31a13,13,0,0,0,.3-2.67,11.71,11.71,0,0,1,1.1,3.23,12.94,12.94,0,0,1-.28,2.28,5.82,5.82,0,0,0,2-4,25.26,25.26,0,0,0-.85-5.07s3.77,4.37,4.18,6.74.74,5.81,1.05,7.09,1.4,5.39,1.4,5.39Z" style="fill:#FFC727"></path><path d="M61.63,311.14c-.66,1.66-9,15.45-8.49,19.43S63,349.66,83.38,357.63c0,0,2.16,1.82,2.66,7.47s-2.14,19.09-1.89,23.13a13,13,0,0,0,1.5,5s-.21-5.26.45-6.36c0,0,1.14,7,2.22,9.38a8.14,8.14,0,0,0,3.11,3.15l-2.18-5.78s3.39,6.9,15.38,12.95c10.18,5.13,50.59,3.54,55.35,3.54s43.71-5.75,47.43-13.28c1.22-2.49,13.82-25.22,14.78-31.33.51-3.3,8.7-16.57,6.34-21.78s-10.42-14.29-18.47-18.95c-6.31-3.65-35-4.48-58.44,5a15.82,15.82,0,0,0-1.94-1.66,8.07,8.07,0,0,0-3.14-1.27s-3.83-23-5.16-25.85-20.59-18.37-26-20.47-27.23.77-31.33,1.66-18.92,9.74-19.92,12.28S61.63,311.14,61.63,311.14Z" style="fill:#FFC727"></path><path d="M126.23,410c-9.18-.44-17.66-1.42-21.6-3.41C93,400.69,89.47,394,89.26,393.62l2.17,5.76a8.14,8.14,0,0,1-3.11-3.15c-1.08-2.41-2.22-9.38-2.22-9.38-.66,1.1-.45,6.36-.45,6.36a13,13,0,0,1-1.5-5c-.25-4,2.38-17.49,1.89-23.13s-2.66-7.47-2.66-7.47c-20.42-8-29.74-23.07-30.24-27.06S61,312.8,61.63,311.14c0,0,1.49-14.17,2.49-16.72-1.44,7.95-.69,17.58-.86,18.25s-5.85,14.36-4.5,17.9,20,24.16,31.55,26.91c0,0,3.83,10.89,3.36,15.88s.41,18.79,1.38,21.94,5.15,5.52,8.84,8.9S125.13,409.82,126.23,410Z" style="opacity:0.1"></path><path d="M172.55,408c-4,.94-8.06,1.85-12.16,2.51-6.9.62-13.8.48-20.72.42-5.54-.17-11.1-.13-16.59-1.13-5.5-1.46-10.29-4.39-14.72-7.67,2.39,1.38,4.82,2.67,7.32,3.8,7.44,3.88,15.88,3.18,24,3.52,6.84.07,13.75.38,20.58.16,2.82-.31,9.38-1.25,12.27-1.61Z" style="fill:#263238"></path><path d="M83.38,357.63c1.73.56,16.75-.91,20-2,2.7-.89,18.43-12.16,30.41-20.35,7-4.79,13.37-8.65,13.86-8.65,0,0,3.53,1.72,4,2.57,0,0-7,2.23-9.05,3.49s-8.11,5.22-8.11,5.22-23.58,20.76-29.06,22-20.54,1.41-20.54,1.41a8.35,8.35,0,0,1-1.2-2.16C83.53,358.48,83.38,357.63,83.38,357.63Z" style="fill:#455a64"></path><path d="M133.52,338.49a69.48,69.48,0,0,1,10-6.85,35.81,35.81,0,0,1,8.09-1.91c-2.57,1-5.18,1.75-7.71,2.8-3.24,1.77-7,4.47-10.39,6Z" style="fill:#263238"></path><path d="M146.54,326.8c-1.22.74-2.89,1.88-4.12,2.64a20.11,20.11,0,0,0-1.81,1.51,15.72,15.72,0,0,1-2,1.47,19.23,19.23,0,0,1,2.73-3.43,11.07,11.07,0,0,1,5.21-2.19Z" style="fill:#263238"></path><path d="M74.31,302.78c-4.56-.47-7.31,3.85-7.86,9.16-.44,4.3,1.82,9,6.19,9.42s7.6-4.44,8-8.48S79.25,303.29,74.31,302.78Z" style="fill:#263238"></path><path d="M74.63,303.94c-4.28-.44-6.87,3.61-7.38,8.61-.42,4,1.7,8.43,5.81,8.85s7.15-4.17,7.54-8S79.28,304.41,74.63,303.94Z" style="fill:#fff"></path><path d="M76,304.07c-3.36-.34-5.38,2.83-5.78,6.74-.33,3.17,1.33,6.6,4.55,6.93s5.59-3.26,5.9-6.24S79.67,304.44,76,304.07Z" style="fill:#263238"></path><path d="M108.26,302.46c6.2-1.19,10.24,3,11.3,8.54a9.48,9.48,0,0,1-7.9,11c-6,1.14-10.68-3.57-11.49-7.8A10,10,0,0,1,108.26,302.46Z" style="fill:#263238"></path><path d="M107.88,303.74c5.84-1.12,9.63,2.8,10.63,8a8.91,8.91,0,0,1-7.43,10.3c-5.6,1.07-10-3.35-10.8-7.33A9.37,9.37,0,0,1,107.88,303.74Z" style="fill:#fff"></path><path d="M110.29,304.2c4.76-.91,7.86,2.29,8.68,6.56a7.28,7.28,0,0,1-6.07,8.41,7.76,7.76,0,0,1-8.81-6A7.65,7.65,0,0,1,110.29,304.2Z" style="fill:#263238"></path><path d="M91,315.22c-.06.57-3.46,2.69-3.85,2.69s-3.88-2.08-4-2.64,3.08-.79,3.9-.8S91.08,314.66,91,315.22Z" style="fill:#263238"></path><path d="M80.67,319.32c.57.8,1.14,1.59,1.77,2.31a6.43,6.43,0,0,0,1,1,1,1,0,0,0,.48.19.92.92,0,0,0,.44-.21,3.56,3.56,0,0,0,.77-1,9.1,9.1,0,0,0,.57-1.27,19.94,19.94,0,0,0,.82-2.73l.39-1.69.58,1.64a20.44,20.44,0,0,0,1.44,3.16,8.61,8.61,0,0,0,.95,1.4,2.65,2.65,0,0,0,1.22.9l.16,0h.17a2.38,2.38,0,0,0,.37-.06,2.78,2.78,0,0,0,.74-.31,6.64,6.64,0,0,0,1.34-1.06,17.53,17.53,0,0,0,2.19-2.78,13.19,13.19,0,0,1-1.85,3.09,6.59,6.59,0,0,1-1.35,1.28,2.65,2.65,0,0,1-1.93.55,3.3,3.3,0,0,1-1.71-1.05,10.64,10.64,0,0,1-1.12-1.5,19.37,19.37,0,0,1-1.57-3.32l1-.05a20.19,20.19,0,0,1-.93,2.85,10.94,10.94,0,0,1-.7,1.36,3.84,3.84,0,0,1-1.08,1.21,1.58,1.58,0,0,1-.9.29,1.51,1.51,0,0,1-.84-.4,5.65,5.65,0,0,1-1-1.16A16.73,16.73,0,0,1,80.67,319.32Z" style="fill:#263238"></path><path d="M64.79,315.86c-2.5-.11-5-.14-7.5-.11s-5,.09-7.5.27c-1.25.05-2.49.16-3.74.25s-2.49.24-3.73.38c-2.49.25-5,.63-7.44,1,1.22-.27,2.44-.56,3.68-.78s2.47-.43,3.71-.6c2.49-.36,5-.57,7.49-.74s5-.21,7.53-.16c1.25,0,2.51.08,3.76.15S63.55,315.69,64.79,315.86Z" style="fill:#263238"></path><path d="M63.82,317.35c-1.12.09-2.25.17-3.37.29s-2.25.21-3.37.34c-2.24.24-4.48.5-6.71.84-1.12.14-2.23.32-3.34.49l-3.33.57-1.67.3-1.66.34c-1.11.19-2.2.47-3.31.68,2.16-.66,4.35-1.24,6.56-1.7s4.44-.85,6.68-1.18,4.49-.57,6.75-.73S61.56,317.32,63.82,317.35Z" style="fill:#263238"></path><path d="M64.51,318.74c-.92.19-1.84.37-2.76.58s-1.84.39-2.76.61c-1.83.43-3.66.85-5.47,1.32s-3.64.94-5.45,1.44-3.62,1-5.44,1.53c.88-.35,1.76-.68,2.65-1s1.78-.62,2.68-.9c1.79-.59,3.61-1.09,5.43-1.56s3.67-.87,5.53-1.21S62.63,318.91,64.51,318.74Z" style="fill:#263238"></path><path d="M122.42,319.71c1.54-.2,3.09-.3,4.64-.42s3.11-.14,4.67-.17c3.11-.06,6.22,0,9.33.18s6.21.45,9.3.88c1.54.2,3.08.46,4.61.72.77.12,1.53.28,2.29.44l2.28.48c-3.07-.46-6.14-.94-9.23-1.25-1.54-.18-3.09-.32-4.63-.46s-3.1-.24-4.65-.31c-3.09-.21-6.2-.27-9.3-.3S125.52,319.54,122.42,319.71Z" style="fill:#263238"></path><path d="M123.63,321.55c2.8,0,5.6.12,8.4.33s5.59.53,8.37.89,5.55.86,8.29,1.44,5.47,1.25,8.16,2c-1.38-.27-2.73-.62-4.11-.87l-2.06-.42-2.06-.37c-1.38-.26-2.76-.48-4.14-.71s-2.76-.43-4.15-.61c-2.77-.4-5.55-.72-8.33-1-1.39-.15-2.79-.28-4.18-.4S125,321.65,123.63,321.55Z" style="fill:#263238"></path><path d="M122.78,323.29c2.33.22,4.64.6,6.93,1s4.58.94,6.86,1.49,4.52,1.19,6.75,1.9c1.12.35,2.22.72,3.33,1.09s2.2.8,3.29,1.21c-2.25-.64-4.48-1.31-6.73-1.93s-4.5-1.22-6.77-1.78-4.53-1.1-6.8-1.61c-1.14-.26-2.28-.49-3.43-.73S123.93,323.5,122.78,323.29Z" style="fill:#263238"></path><path d="M69.64,297.44a4.94,4.94,0,0,1,3.16-3.12,5.13,5.13,0,0,1,4.42.29,15.75,15.75,0,0,1-2,.91,52.51,52.51,0,0,1-5.63,1.92Z" style="fill:#263238"></path><path d="M119.06,299a51.44,51.44,0,0,1-5.53-2.22,15.39,15.39,0,0,1-1.9-1,5.12,5.12,0,0,1,4.44-.06,4.92,4.92,0,0,1,3,3.28Z" style="fill:#263238"></path><path d="M93.27,341a17.71,17.71,0,0,1-3.33-4.58.17.17,0,0,0-.31.05c-.08.4-.29,1.55-.32,1.73-.06-.1-.11-.2-.16-.3-.18-.34-.33-.69-.48-1.05a14.08,14.08,0,0,1-.67-2.21,13.42,13.42,0,0,1-.29-2.28c0-.78,0-1.56.06-2.34,0,0-.06,0-.07,0a9,9,0,0,0-.36,2.4,13,13,0,0,0,.13,2.33,11.82,11.82,0,0,0,.58,2.27,11.2,11.2,0,0,0,.47,1.13,3.45,3.45,0,0,0,.62,1c.2.19.5,0,.49-.26s.2-1.71.24-1.94A12.09,12.09,0,0,0,91.12,339a12.46,12.46,0,0,0,2,2.08C93.23,341.13,93.33,341,93.27,341Z" style="fill:#263238"></path><path d="M130.77,312.89a57.72,57.72,0,0,1,6,13.32c1,4-6.27,9-9.18,11,1.79-1.64,3.56-3.29,5.19-5.05,1.24-1.49,2.87-3,3.13-5a18.23,18.23,0,0,0-1.18-4.19c-1.18-3.27-2.68-6.85-3.92-10.13Z" style="opacity:0.1"></path><path d="M146.8,361.61c-2.75,4.56-9.07,31.1-5.64,37.41s34.31,19.26,35.42,20.59S183,440,182.67,440.53s-6,2.94-5.87,4.08c.1.76,14,.23,14.83.23s1.85-2.91,1.72-2.7,15.17-27.15,18.23-32.55c1.51-2.65-4.17-10.95-4.17-12.78s13.32-18.1,13.28-26.73c0-4.86-7.8-24.58-26.23-27.23S153.11,351.15,146.8,361.61Z" style="fill:#FFC727"></path><path d="M184.18,440.88c-2.51,1.23-4.76,2.16-5.39,3.32-.12.22.09.48.51.77-1.47-.05-2.47-.16-2.5-.36-.14-1.14,5.54-3.53,5.87-4.08s-5-19.59-6.09-20.92-32-14.28-35.42-20.59c-2.39-4.4,0-18.66,2.54-28.42-.63,4.75.4,23.56,4.38,27.63s31.29,16.38,32.35,17.87S185.82,440.09,184.18,440.88Z" style="opacity:0.1"></path><path d="M158.05,410.32c-6-2.67-12.73-5-17.08-10.22-1.41-1.94-1.29-4.51-1.36-6.78a84.53,84.53,0,0,1,5-26c-1.87,9.6-3.94,19.36-3.37,29.17a5.48,5.48,0,0,0,.9,2.76c4.05,5,10.47,7.66,15.91,11Z" style="fill:#263238"></path><path d="M141.55,370.33a53.22,53.22,0,0,1,.4,8.37,10.59,10.59,0,0,1-.4-8.37Z" style="fill:#263238"></path><path d="M216.65,348.22a90.82,90.82,0,0,1,5.65,17.09,9,9,0,0,1,.11,3.58C220,378,214.59,386.05,209.73,394c-.36.61-1.4,2.22-1.7,2.82-.09-.24.07.3.19.59,1.31,3.47,3.17,6.85,4,10.53a1.91,1.91,0,0,1-.24,1.22,31.86,31.86,0,0,1-2.9,4.83,41.36,41.36,0,0,0,2.44-5,1.32,1.32,0,0,0,.12-.94c-1.17-3.72-3.22-7.1-4.73-10.74a1.31,1.31,0,0,1-.11-.61,20.93,20.93,0,0,1,1.79-3.37c4.57-8,9.93-15.87,12.55-24.73.5-4-1-7.92-2-11.78-.77-2.89-1.66-5.74-2.54-8.6Z" style="fill:#263238"></path><path d="M248.07,285.36a25.33,25.33,0,0,0,3.23-2.72c-.11.22-1.94,3.79-2.62,4.22s-3.28,2.85-4.45,3.62c-7.91,12.12-18.45,27-21.93,37.7-3,9.14,0,15.61,0,15.61l-11.14-10.12c-2-2.74-7.47-11.46-5.47-26.24s13.85-33,2.52-53.29-22.57-14.39-38.92-5c0,0,16.69-27.21,46.2-27.75,19.14-.36,34.89,41.92,33.52,58.34a6.26,6.26,0,0,0,.63-1.51c.26-1.36.37-7.83.37-7.83s1.71,6.28,1.21,9c-.35,2-2.21,4.22-3.71,6.14Z" style="fill:#FFC727"></path><path d="M206.5,323.56c2.06,4.48,4.11,9.05,4.52,14-1.42-4.71-3.42-9.21-4.52-14Z" style="fill:#263238"></path><path d="M209,330.57a6.57,6.57,0,0,1-.27,4.41,18.63,18.63,0,0,1,.27-4.41Z" style="fill:#263238"></path><path d="M221.11,333.68l.19,2.95c0,3,1,5.77,1.25,8.71a18.21,18.21,0,0,1-1.44-11.66Z" style="fill:#263238"></path><path d="M221.25,339.28a35,35,0,0,1,2.74,4,7.31,7.31,0,0,1-2.74-4Z" style="fill:#263238"></path><path d="M211.15,333.65c-2-2.76-7.46-11.47-5.46-26.22s13.85-33,2.52-53.29-22.57-14.39-38.92-5c0,0,12.5-20.38,35-26.21-8.16,2.89-16.2,11.74-19.73,15.87,0,0,13.93-2,19.73,2.66s14.05,22.78,16.41,32.43-12,29.84-13.1,39.74C206.53,323.28,210.9,333.1,211.15,333.65Z" style="opacity:0.1"></path></g></svg>