<svg xmlns="http://www.w3.org/2000/svg" viewBox="120 140 260 320"><g id="freepik--Dog--inject-4"><path d="M357.71,359.51s18.56,53.79,27.7,75.63a28.37,28.37,0,0,0,6.87,9.31c1.55,1.55,62.05.22,63.16,0S449,429.71,444.8,427.72s-36.12,3.87-36.12,3.87-1.18-63.15-.81-65.07a54.16,54.16,0,0,0,.29-7l.74,9.67s2.14-7.24,2.22-10.57-2-36.19-2-36.19Z" style="fill:#FFC727"></path><path d="M357.71,359.51s18.56,53.79,27.7,75.63a28.37,28.37,0,0,0,6.87,9.31c1.55,1.55,62.05.22,63.16,0S449,429.71,444.8,427.72s-36.12,3.87-36.12,3.87-1.18-63.15-.81-65.07a54.16,54.16,0,0,0,.29-7l.74,9.67s2.14-7.24,2.22-10.57-2-36.19-2-36.19Z" style="opacity:0.4"></path><path d="M441.32,434.81c3.14,2,6.56,6,5.25,10-.21-4-3.07-6.81-5.25-10Z" style="fill:#263238"></path><path d="M447.52,434.44c3.15,2,6.57,6,5.26,10-.22-4-3.07-6.81-5.26-10Z" style="fill:#263238"></path><path d="M409.89,335c-5.86,11.45-14.53,23.68-17.5,26.22A227.58,227.58,0,0,1,364.9,380c-4.19-11.82-7.19-20.51-7.19-20.51l51.41-37.09S409.48,328.11,409.89,335Z" style="opacity:0.1"></path><path d="M169.29,399.32l-3.58,14.33c-29.8-23-58.13-60.09-68.76-95.38-2.29-7.64-7.53-24.2-7.63-31-.11-7.17,3.66-17.49,4-18.32-.1.76-1.29,10.18,0,18.2.06-1.29.16-2.55.3-3.82,4.53-41.3,62.55-76.87,62.55-76.87s-28.19,43-24.9,100c1.16,20.14,8.37,40.14,16.19,56.4-3.61-7.9-7-20.71-7.16-21.5.6,1.43,16.74,39.4,22.79,49.06l.61.94c.16.23.29.43.41.62C167.25,396.66,169.29,399.32,169.29,399.32Z" style="fill:#FFC727"></path><path d="M169.29,399.32l-3.58,14.33c-29.8-23-58.13-60.09-68.76-95.38-2.29-7.64-7.53-24.2-7.63-31-.11-7.17,3.66-17.49,4-18.32-.1.76-1.29,10.18,0,18.2.06-1.29.16-2.55.3-3.82,4.53-41.3,62.55-76.87,62.55-76.87s-28.19,43-24.9,100c1.16,20.14,8.37,40.14,16.19,56.4-3.61-7.9-7-20.71-7.16-21.5.6,1.43,16.74,39.4,22.79,49.06l.61.94c.16.23.29.43.41.62C167.25,396.66,169.29,399.32,169.29,399.32Z" style="opacity:0.4"></path><path d="M169.29,399.32l-3.58,14.33c-3.79-2.92-7.55-6.06-11.24-9.41L160,384.89c1.17,2.28,2.2,4.17,3.05,5.52l.61.94c.16.23.29.43.41.62C167.25,396.66,169.29,399.32,169.29,399.32Z" style="opacity:0.1"></path><path d="M160.27,419.82c.38,5.09-.66,24.38,18.61,24.38h95.29c12.41,0,99.58-71.6,114.27-88.2s27.33-36.56,29.1-52.52S402.4,215.07,384,181.16c0,0-.15-15.95-4.36-28.8S363.7,121.11,350.4,116.9s-75.34,6.43-81.55,18.61-5.76,33.69-5.76,33.69-53.4,22.82-53.18,26.59,21.27,26.37,39,28.14,51.85-11.74,51.85-11.74,1.55,6.42-.22,12.18-46.76,67.61-55,73.69S192,320.77,182,337.83,158.28,393,160.27,419.82Z" style="fill:#FFC727"></path><path d="M160.27,419.82c.38,5.09-.66,24.38,18.61,24.38h95.29c12.41,0,99.58-71.6,114.27-88.2s27.33-36.56,29.1-52.52S402.4,215.07,384,181.16c0,0-.15-15.95-4.36-28.8S363.7,121.11,350.4,116.9s-75.34,6.43-81.55,18.61-5.76,33.69-5.76,33.69-53.4,22.82-53.18,26.59,21.27,26.37,39,28.14,51.85-11.74,51.85-11.74,1.55,6.42-.22,12.18-46.76,67.61-55,73.69S192,320.77,182,337.83,158.28,393,160.27,419.82Z" style="fill:#FFC727"></path><path d="M160.27,419.82c.38,5.09-.66,24.38,18.61,24.38h95.29c12.41,0,99.58-71.6,114.27-88.2s27.33-36.56,29.1-52.52S402.4,215.07,384,181.16c0,0-.15-15.95-4.36-28.8S363.7,121.11,350.4,116.9s-75.34,6.43-81.55,18.61-5.76,33.69-5.76,33.69-53.4,22.82-53.18,26.59,21.27,26.37,39,28.14,51.85-11.74,51.85-11.74,1.55,6.42-.22,12.18-46.76,67.61-55,73.69S192,320.77,182,337.83,158.28,393,160.27,419.82Z" style="opacity:0.30000000000000004"></path><path d="M190.86,335.83c-7.1,9.32-15.48,62.95-6.42,82,7.71,16.21,51.49,25.06,77.77,26.38H178.89c-19.29,0-18.25-19.29-18.62-24.38-2-26.81,11.74-64.93,21.72-82s55.39-33.68,63.6-39.77,53.18-67.93,55-73.69.23-12.18.23-12.18,13.56-6.42,18.56-9.19c0,0,3.56,13,3.57,20.33s-61,74-71.48,78.86S198,326.53,190.86,335.83Z" style="opacity:0.1"></path><path d="M233.29,304.59c-1.35,16.54-9.65,40.82-22.06,54.67-12.6,14.07-37.71,16.22-44.78,16.55,4.45-15.27,10.48-29.33,15.54-38C189.43,325.12,216.56,312.64,233.29,304.59Z" style="opacity:0.2"></path><path d="M245.92,311.87c1.46,6.42,14.4,7.46,20.61,4.69s9.75-12.5,4.65-18.5S244.14,304.08,245.92,311.87Z" style="opacity:0.2"></path><path d="M291.78,260.61c-.33,7.86-7.19,20.5-14.62,23-5.51,1.9-12.62.3-16.27-3.29,8.3-10.61,18.22-24.05,26.07-35.16C290.38,247.74,292,254.77,291.78,260.61Z" style="opacity:0.2"></path><path d="M376.66,276c1.31-6.17,2.1-12.59,1.37-18.66a.55.55,0,0,1,1-.39c.93,1,3.55,3.85,3.94,4.29,0-.38,0-.76-.07-1.12-.11-1.27-.28-2.53-.5-3.77a47.8,47.8,0,0,0-2-7.36,44.91,44.91,0,0,0-3.18-6.91c-1.27-2.24-2.79-4.3-4.25-6.44-.06-.09.11-.21.2-.13a30,30,0,0,1,5.2,6.1,41.73,41.73,0,0,1,3.7,6.74,40,40,0,0,1,2.36,7.39c.28,1.32.49,2.64.64,4a11.15,11.15,0,0,1,0,3.95c-.21.86-1.48.73-1.84.13-.22-.37-3.54-4.45-4.05-5a38.52,38.52,0,0,1-2.05,17.32C377.05,276.37,376.6,276.28,376.66,276Z" style="opacity:0.1"></path><path d="M300.23,211.52c-.82.33-2.6,1-5.05,1.88Z" style="opacity:0.1"></path><path d="M272,433.09s-2.54,9-.59,11,84.65,1,84.8,0-12.7-18.39-20.83-19.28-34.12,6.65-34.12,6.65S348.74,372.3,334.8,337c-6.13-15.55-42.9-21.6-90-2.58-42.82,17.28-32.5,94.14-9,102.56S272,433.09,272,433.09Z" style="fill:#FFC727"></path><path d="M272,433.09s-2.54,9-.59,11,84.65,1,84.8,0-12.7-18.39-20.83-19.28-34.12,6.65-34.12,6.65S348.74,372.3,334.8,337c-6.13-15.55-42.9-21.6-90-2.58-42.82,17.28-32.5,94.14-9,102.56S272,433.09,272,433.09Z" style="opacity:0.30000000000000004"></path><path d="M247.77,332.92c21.21-8.55,65.3-20.55,83.61-2.39C346,346,336,373.18,328,389.8a232.19,232.19,0,0,1-26.74,41.63c4.84-6.68,9.41-13.54,13.64-20.6,11.46-19.26,32.25-57.26,16.18-77.89-16.7-19-62.21-7.25-83.26,0Z" style="fill:#263238"></path><path d="M256.55,326.71a30.69,30.69,0,0,1,14.22-.79,134.78,134.78,0,0,1-14.22.79Z" style="fill:#263238"></path><path d="M271.64,444.2a1.66,1.66,0,0,1-1-1.43,25.27,25.27,0,0,1-.17-5.43,101,101,0,0,1,2.89-17.77c.31-1.16.6-2.32,1-3.47-.14,1.19-.33,2.38-.48,3.57-.33,2.23-1.26,8.33-1.62,10.64-.52,3.54-1.12,7.08-1.31,10.65,0,1.09-.36,2.58.77,3.24Z" style="fill:#263238"></path><path d="M271.74,417.7c.4,2.06.6,4.19.83,6.24.61,4.45-1.1-.29-1.22-2a9.57,9.57,0,0,1,.39-4.28Z" style="fill:#263238"></path><path d="M339.45,434.81c3.15,2,6.57,6,5.26,10-.22-4-3.07-6.81-5.26-10Z" style="fill:#263238"></path><path d="M345.66,434.44c3.14,2,6.56,6,5.25,10-.21-4-3.06-6.81-5.25-10Z" style="fill:#263238"></path><path d="M384,180.29s2.34-22.72,3.4-24.66,12.24-4.65,15.34-2.38-17.17,28.82-17.17,28.82Z" style="fill:#455a64"></path><path d="M389.22,177.16c-.28.4-.56.77-.81,1.13-1.36-.51-2.69-1-4-1.45,0-.43.1-.88.15-1.36Q386.86,176.27,389.22,177.16Zm3.35-11c-2.26-.81-4.46-1.59-6.63-2.32-.06.44-.12.89-.17,1.35,2.1.72,4.25,1.46,6.44,2.26l1.25.46c.61.21,1.23.44,1.84.68l.77-1.14c-.76-.29-1.5-.57-2.25-.82C393.39,166.4,393,166.26,392.57,166.11Zm4.27-10.72-1.25-.44c-1.36-.49-2.72-1-4-1.41-.75.23-1.44.47-2,.72,1.88.64,3.8,1.29,5.76,2l1.24.44c1.64.58,3.29,1.2,5,1.84.21-.43.41-.83.59-1.22Q399.42,156.32,396.84,155.39Zm-.64-2.82-.61,2.38c-.11.43-.23.86-.33,1.3q-1.26,4.71-2.69,9.86l-.36,1.29c-.87,3.07-1.8,6.24-2.78,9.48.74-1,1.54-2.11,2.36-3.28.58-1.95,1.14-3.87,1.67-5.74l.36-1.28c1-3.44,1.86-6.75,2.68-9.89.13-.43.24-.87.34-1.3.27-1,.52-2,.78-2.95C397.15,152.46,396.68,152.52,396.2,152.57Z" style="fill:#37474f"></path><path d="M384,180.29s2.57-24,7-24.49S385.65,177.41,384,180.29Z" style="opacity:0.30000000000000004"></path><path d="M385.08,180.07s16.66-7,18.41-7.18c3.25-.3,6.56,5.59,6.19,8.62s-25.23.34-25.23.34Z" style="fill:#455a64"></path><path d="M405.71,173.55l-2.19,1.12-1.17.61c.16.41.33.82.5,1.24l1.19-.61c.93-.48,1.85-.95,2.75-1.43A7,7,0,0,0,405.71,173.55ZM404,175.91l-.52-1.24c-.23-.56-.44-1.1-.68-1.64l-1.25.41.76,1.84c.16.41.33.82.5,1.24q1.26,3.09,2.5,6.33c.49,0,1-.07,1.37-.12C405.84,180.41,404.93,178.13,404,175.91Z" style="fill:#37474f"></path><path d="M393.7,181.1c.21.52.41,1.06.63,1.58l-1.47-.1-.36-.89c-.51.24-1,.49-1.53.75l-2.64-.22,3.68-1.77c-.38-.95-.76-1.87-1.14-2.79l1.23-.5,1.09,2.7c3.2-1.57,6.27-3.1,9.16-4.58.16.41.33.82.5,1.24C400,178,396.9,179.53,393.7,181.1Z" style="fill:#37474f"></path><path d="M385.08,180.07s17.66-7.52,19.69-4.62S387.71,180.1,385.08,180.07Z" style="opacity:0.30000000000000004"></path><path d="M300.45,211.88c.88,3.22,65.9,20.59,70.89,18.27,3.73-1.74,16.8-47.15,13.82-51.23-1.26-1.72-3.75,2.54-34.32,15.4C336.66,200.29,299.73,209.28,300.45,211.88Z" style="fill:#455a64"></path><path d="M309.67,207.62a.41.41,0,0,0,0-.08l-1.25.44a.21.21,0,0,0,0,.07c.22.63.48,1.28.7,1.93.43-.12.86-.24,1.3-.34C310.16,209,309.91,208.28,309.67,207.62Zm1.2,3.27-1.28.36c.61,1.71,1.24,3.46,1.87,5.26l1.57.5C312.31,214.91,311.59,212.86,310.87,210.89Zm14.74,7.44c-.13-.43-.28-.84-.41-1.26h0c-1.11-3.28-2.22-6.44-3.31-9.44-.16-.42-.31-.84-.45-1.25l-.82-2.18-1.29.4c.27.7.55,1.44.81,2.17.16.41.31.82.47,1.25,1.09,3,2.21,6.17,3.31,9.45.14.41.29.84.42,1.27l.6,1.81,1.54.43C326.2,220.09,325.9,219.19,325.61,218.33ZM347.45,211l-1.26.45q1.57,4.63,3.1,9.58c.43-.14.84-.29,1.27-.45C349.55,217.33,348.49,214.13,347.45,211Zm0,0-1.26.45q1.57,4.63,3.1,9.58c.43-.14.84-.29,1.27-.45C349.55,217.33,348.49,214.13,347.45,211Zm0,0-1.26.45q1.57,4.63,3.1,9.58c.43-.14.84-.29,1.27-.45C349.55,217.33,348.49,214.13,347.45,211Zm-10.87,3.78c-.15-.43-.28-.85-.43-1.28-1.12-3.29-2.25-6.46-3.34-9.46-.16-.41-.32-.83-.47-1.24l-.73-2c-.43.14-.86.27-1.3.39.26.67.5,1.33.76,2,.15.42.31.84.47,1.27,1.11,3,2.23,6.16,3.33,9.45.15.41.29.84.43,1.26,1,2.86,1.92,5.82,2.84,8.84l1.37.35.15,0a.19.19,0,0,0,0-.08C338.64,221.11,337.62,217.91,336.58,214.82ZM347.45,211l-1.26.45q1.57,4.63,3.1,9.58c.43-.14.84-.29,1.27-.45C349.55,217.33,348.49,214.13,347.45,211Zm0,0-1.26.45q1.57,4.63,3.1,9.58c.43-.14.84-.29,1.27-.45C349.55,217.33,348.49,214.13,347.45,211Zm0,0-1.26.45q1.57,4.63,3.1,9.58c.43-.14.84-.29,1.27-.45C349.55,217.33,348.49,214.13,347.45,211Zm5.16,16.5q-.83-2.86-1.67-5.66c-.13-.42-.26-.85-.38-1.26-1-3.29-2.07-6.49-3.11-9.58-.14-.43-.29-.84-.44-1.27-1.13-3.3-2.28-6.48-3.38-9.46-.16-.43-.32-.84-.47-1.26-.21-.57-.43-1.13-.64-1.67l-1.26.42c.21.56.42,1.14.64,1.71.16.4.3.82.46,1.25,1.12,3,2.25,6.16,3.4,9.46-3.15,1.12-6.36,2.24-9.61,3.32.15.43.28.85.43,1.28,3.26-1.09,6.46-2.21,9.61-3.33q1.57,4.63,3.1,9.58c.14.43.27.84.39,1.27.49,1.6,1,3.21,1.44,4.85h0Zm12,.08c-.9-3.3-1.85-6.55-2.85-9.72,3.29-1.25,6.48-2.49,9.54-3.72-.14-.42-.28-.84-.41-1.25-3.05,1.21-6.24,2.45-9.52,3.7-1-3.3-2.1-6.51-3.16-9.59-.16-.43-.3-.85-.44-1.27-1.15-3.32-2.31-6.49-3.45-9.47-.16-.43-.32-.84-.46-1.26-.23-.58-.46-1.14-.67-1.72,0,0,0,0,0,0-.4.2-.77.36-1.13.53,0,0-.05,0-.08,0,.23.56.44,1.12.65,1.69l.48,1.26c1.12,3,2.28,6.14,3.44,9.46q-4.64,1.77-9.53,3.53c.15.43.3.84.44,1.27,3.25-1.18,6.44-2.35,9.53-3.52,1.07,3.08,2.13,6.29,3.16,9.59.13.42.27.83.4,1.26q1.48,4.75,2.84,9.71c.12.43.24.86.35,1.28h0c0,.12.05.25.09.37l1.44.22c-.09-.35-.19-.71-.28-1Zm7.92-13.93c-.13-.43-.27-.84-.4-1.27q-1.61-4.95-3.23-9.61c-.14-.41-.29-.84-.44-1.25-1.18-3.34-2.37-6.53-3.5-9.49-.16-.43-.32-.82-.48-1.24-.28-.72-.56-1.42-.83-2.12l-1.21.55c.27.68.53,1.37.81,2.08l.47,1.24c1.15,3,2.32,6.14,3.5,9.47.15.42.3.84.44,1.27q1.65,4.62,3.23,9.61c.13.41.27.83.41,1.25,1,3.16,2,6.41,2.91,9.72.06.25.13.5.21.77.13-.32.27-.67.4-1s.27-.67.4-1C374.37,219.59,373.48,216.61,372.55,213.69Zm7-15.3c-.16-.41-.31-.84-.46-1.25-1.21-3.36-2.41-6.53-3.56-9.48l-.48-1.23c-.37-.92-.72-1.81-1.06-2.67l-1.2.59c.34.84.69,1.71,1,2.6.16.4.32.82.48,1.23,1.14,3,2.34,6.13,3.57,9.49.13.41.28.83.44,1.24.79,2.2,1.57,4.48,2.36,6.82.21-.77.42-1.53.62-2.3C380.72,201.71,380.13,200,379.55,198.39Zm5.95-16.57c-.37-.93-1-2.28-1.36-3.22a8.73,8.73,0,0,0-1.25.49c.41,1,1,2.31,1.4,3.28.16.4.32.81.48,1.24s.36.89.55,1.36c.08-.6.13-1.16.18-1.68s.07-.88.08-1.27h0C385.56,181.94,385.53,181.89,385.5,181.82ZM309.12,210q-4.2,1.17-8.42,2.23c.08.07.17.13.28.21l.37.23a8.67,8.67,0,0,0,1,.52q3.61-.91,7.22-1.92C309.43,210.82,309.28,210.4,309.12,210Zm76.38-28.16c-.4.19-.8.38-1.21.55-2.83,1.27-5.9,2.62-9.24,4.06-.4.16-.81.34-1.22.52-2.95,1.26-6.05,2.55-9.33,3.88-.4.18-.81.34-1.23.51-3,1.21-6.14,2.46-9.39,3.7l-1.26.48q-4.59,1.78-9.46,3.53l-1.26.46c-3.12,1.12-6.32,2.24-9.56,3.33l-1.27.41c-3.16,1.07-6.38,2.11-9.63,3.12l-1.3.39c-3.21,1-6.46,1.94-9.72,2.88.14.41.29.84.45,1.25q4.92-1.38,9.74-2.88c.43-.12.85-.25,1.28-.39q4.91-1.51,9.65-3.1c1.11,3,2.23,6.16,3.33,9.45.43-.13.85-.28,1.28-.43-1.12-3.29-2.25-6.46-3.34-9.46,3.23-1.09,6.43-2.2,9.55-3.32,1.12,3,2.25,6.16,3.4,9.46-3.15,1.12-6.36,2.24-9.61,3.32.15.43.28.85.43,1.28,3.26-1.09,6.46-2.21,9.61-3.33l1.26-.45c3.25-1.18,6.44-2.35,9.53-3.52.42-.18.83-.32,1.25-.48,3.26-1.25,6.42-2.49,9.45-3.72-.14-.43-.29-.85-.44-1.27q-4.55,1.84-9.45,3.72c-1.15-3.32-2.31-6.49-3.45-9.47,3.24-1.26,6.39-2.5,9.4-3.72,1.15,3,2.32,6.14,3.5,9.47l1.24-.49c-1.18-3.34-2.37-6.53-3.5-9.49,3.28-1.32,6.4-2.62,9.33-3.89l1.22-.52c3.34-1.43,6.43-2.79,9.24-4l.73-.32c0-.45.07-.88.08-1.27h0v-.21Zm-29,24.42q-4.64,1.77-9.53,3.53c-1.13-3.3-2.28-6.48-3.38-9.46q4.86-1.77,9.47-3.53C354.22,199.75,355.38,202.92,356.54,206.24Zm22.55-9.1-1.21.53c-3,1.25-6.1,2.56-9.4,3.89l-1.24.49q-4.55,1.84-9.45,3.72l-1.23.47h0q-4.64,1.77-9.53,3.53c-.41.16-.84.31-1.25.45-3.15,1.12-6.36,2.24-9.61,3.32-.43.15-.85.3-1.28.43q-4.77,1.59-9.67,3.09h0c-.43.12-.86.26-1.28.39l-4.77,1.41.62.19c.59.16,1.17.33,1.76.51l2.81-.84,1.27-.4c3.26-1,6.5-2,9.69-3.1l1.28-.41c3.26-1.09,6.46-2.21,9.61-3.33l1.26-.45c3.25-1.18,6.44-2.35,9.53-3.52.42-.18.83-.32,1.25-.48,3.26-1.25,6.42-2.49,9.45-3.72.42-.17.83-.33,1.24-.51q4.95-2,9.4-3.9l1.23-.52c1.17-.49,2.31-1,3.42-1.47.13-.53.25-1.08.39-1.61Q381.29,196.21,379.09,197.14Zm-6.94,15.28-1.24.51c-3.05,1.21-6.24,2.45-9.52,3.7-1-3.3-2.1-6.51-3.16-9.59-.42.16-.83.3-1.25.48,1.07,3.08,2.13,6.29,3.16,9.59q-4.68,1.77-9.58,3.51c-.43.16-.84.31-1.27.45q-4.74,1.68-9.66,3.31l-.12,0,.15,0,2.24.56c2.63-.88,5.22-1.78,7.78-2.68.42-.15.85-.3,1.26-.46,3.28-1.15,6.48-2.33,9.6-3.51l1.24-.47c3.29-1.25,6.48-2.49,9.54-3.72l1.23-.49c2.26-.91,4.48-1.81,6.6-2.69l.48-1.64C377.23,210.36,374.73,211.38,372.15,212.42Zm2.08,11.48c-3.09,1.22-6.31,2.48-9.6,3.72l-1.25.46-2.89,1.07,2.58.46h0l.64-.25h0c.41-.14.84-.3,1.25-.46,3.15-1.19,6.2-2.36,9.16-3.54.09-.22.2-.45.29-.69s.27-.67.4-1Z" style="fill:#37474f"></path><path d="M379.89,208.45c-3.18,10.94-6.85,20.9-8.55,21.7-4.06,1.89-47.92-9.28-64.55-15.22,16.69,4.92,59.21,11.66,63.12,9.74C372.6,223.35,378.21,211.84,379.89,208.45Z" style="opacity:0.1"></path><path d="M301.35,296.52s31.32,21.16,49.2,24.78,53.33-24.11,53.33-24.11,13.78,21.52,15.9,24.11,13.35,4,15.42,1.91,1.92-12,0-17.5-22.61-29.25-30.88-28.51S372,290.3,370.21,290.05c-2.8-.39-18.24-19.2-29.56-33.68" style="fill:#FFC727"></path><path d="M301.35,296.52s31.32,21.16,49.2,24.78,53.33-24.11,53.33-24.11,13.78,21.52,15.9,24.11,13.35,4,15.42,1.91,1.92-12,0-17.5-22.61-29.25-30.88-28.51S372,290.3,370.21,290.05c-2.8-.39-18.24-19.2-29.56-33.68" style="opacity:0.30000000000000004"></path><path d="M435.2,323.21c-2.07,2.13-13.3.68-15.42-1.91s-15.9-24.11-15.9-24.11-35.46,27.72-53.34,24.11c-11.58-2.34-28.8-12.06-39.48-18.6C317.21,306,346.15,313,354.24,314c8.42,1,49.64-18.41,49.64-18.41s17.54,22,19.31,23,8.68,3.65,10.75,3c1.27-.4,2.47-4.61,2.7-7.56C436.85,318.09,436.4,322,435.2,323.21Z" style="opacity:0.1"></path><path d="M426.51,314.44c3.15,2,6.57,6,5.26,10-.22-4-3.07-6.82-5.26-10Z" style="fill:#263238"></path><path d="M432.57,311c2.56,2.88,5.26,8.05,2.87,11.69.91-4.14-1.49-7.88-2.87-11.69Z" style="fill:#263238"></path><path d="M308.59,302c11.8,5.88,23.58,12,35.93,16.63l3.09,1c.53.12,1.83.48,2.33.6,16,2.4,40.33-14.7,53.94-23.06-10.5,8.09-21.51,15.77-33.71,21.14-6.65,2.72-14.15,5.37-21.45,3.61-5.94-1.54-11.54-4.27-17-6.93-7.94-3.93-15.62-8.32-23.12-13Z" style="fill:#263238"></path><path d="M400.78,292.41c4.76,6.94,9.69,14.35,14,21.57a101.59,101.59,0,0,1-14-21.57Z" style="fill:#263238"></path><path d="M313.17,308c4.16.81,8,2,12.13,3a20.74,20.74,0,0,1-12.13-3Z" style="fill:#263238"></path><path d="M344.74,261.56l14.62,16.52c3.53,3.73,6.71,7.93,10.83,11a46.25,46.25,0,0,0,5-2c6.74-2.9,13.47-5.92,20.46-8.36a36.94,36.94,0,0,1,8.16-2.1,6,6,0,0,1,2.91.6,34.75,34.75,0,0,1,9.22,6.16,38.5,38.5,0,0,0-9.56-5.24,5.14,5.14,0,0,0-2.47-.38,40.38,40.38,0,0,0-7.72,2.42c-5.9,2.33-14.31,6.15-20.21,8.74-1.63.65-3.56,1.57-5.3,2.06a1.77,1.77,0,0,1-1.28-.13,17.35,17.35,0,0,1-3.92-3.37c-2.56-2.71-5-5.5-7.3-8.35-4.69-5.69-9.14-11.56-13.44-17.54Z" style="fill:#263238"></path><path d="M351,264.94a12.69,12.69,0,0,1,3.88,9c-1.24-3.13-2.73-5.87-3.88-9Z" style="fill:#263238"></path><path d="M319.32,117c9.66,8.76,12.32,44.52,21,56.92s39.59,8.57,44.1-8.71S364.58,119.13,350.4,116,319.32,117,319.32,117Z" style="fill:#FFC727"></path><path d="M319.32,117c9.66,8.76,12.32,44.52,21,56.92s39.59,8.57,44.1-8.71S364.58,119.13,350.4,116,319.32,117,319.32,117Z" style="opacity:0.6000000000000001"></path><path d="M206.81,195.24c-.26,2.87,11.41,12.3,16.51,11.64s9.82-16.58,7.64-19.95S207.14,191.59,206.81,195.24Z" style="fill:#263238"></path><path d="M221.38,203.93c4.08,3,15.73,13.66,20.6,10.9,4.14-2.5,5.08-8.26,5.89-12.71-.25,4.73-1,10.79-5.45,13.56-5.85,3.23-17-7.81-21-11.75Z" style="fill:#263238"></path><path d="M228.37,214c1.52.84,3.24,2.14,4.86,2.46-.13,0-.13.19-.14.14-3-4.15-7.06-7.42-10.29-11.44a61.16,61.16,0,0,1,8.12,7.3c1.07,1.26,2.37,2.39,2.93,4,0,2.4-4.79-1.85-5.48-2.46Z" style="fill:#263238"></path><path d="M280.83,151c11.85-6.75,23-1,29.06,9.58,4.91,8.61,2.88,21.41-8.5,27.89s-24.3.17-28.91-7.92S268,158.29,280.83,151Z" style="opacity:0.2"></path><path d="M276.83,164.45c5.85-4.64,12.36-2.48,16.52,2.76a11.21,11.21,0,0,1-2.28,15.8c-5.62,4.46-13.14,2.12-16.3-1.88A11.77,11.77,0,0,1,276.83,164.45Z" style="fill:#263238"></path><path d="M277.14,166c5.5-4.36,11.61-2.34,15.53,2.6a10.54,10.54,0,0,1-2.14,14.85c-5.28,4.19-12.35,2-15.33-1.77A11.08,11.08,0,0,1,277.14,166Z" style="fill:#fff"></path><path d="M276.34,168.38c4.49-3.56,9.48-1.9,12.68,2.12a8.61,8.61,0,0,1-1.75,12.13c-4.31,3.42-10.08,1.62-12.51-1.44A9,9,0,0,1,276.34,168.38Z" style="fill:#263238"></path></g></svg>